<svg width="1350" height="227" viewBox="0 0 1350 227" fill="none" xmlns="http://www.w3.org/2000/svg">
<g clip-path="url(#clip0_196_28)">
<mask id="mask0_196_28" style="mask-type:luminance" maskUnits="userSpaceOnUse" x="0" y="0" width="1350" height="227">
<path d="M1350 0H0V227H1350V0Z" fill="white"/>
</mask>
<g mask="url(#mask0_196_28)">
<path opacity="0.4" d="M57.6667 258.667C50.7778 257.778 43.8889 255.444 37 251.667C30.1111 247.889 24.3333 242.889 19.6667 236.667C15.2222 230.444 13 223.111 13 214.667C13 205.778 16.2222 197.222 22.6667 189C29.3333 180.778 38.8889 173.333 51.3333 166.667C43.7778 163.333 37.3333 159.222 32 154.333C26.8889 149.222 24.3333 142.778 24.3333 135C24.3333 127.667 26.5556 121.778 31 117.333C35.4444 112.889 40.1111 109.444 45 107L81.6667 87.6667L131 119.333L144.333 108.667L150.333 115.667L133 130V214L149 230L163.333 220.333L164.667 226.667L118.333 258.667L93 233L57.6667 258.667ZM33.6667 133C33.6667 140.111 36.8889 146 43.3333 150.667C50 155.333 57.7778 159.111 66.6667 162C75.7778 164.667 84 166.889 91.3333 168.667V137.333L52 113C47.1111 115.667 42.7778 118.667 39 122C35.4444 125.111 33.6667 128.778 33.6667 133ZM53.3333 184.333C53.3333 190.778 54.4444 197.556 56.6667 204.667C59.1111 211.556 62.5556 217.556 67 222.667C71.6667 227.556 77.4444 230 84.3333 230C87.4444 230 89.7778 229.667 91.3333 229V178.333C86 177.222 80.3333 176 74.3333 174.667C68.5556 173.111 62.8889 171.222 57.3333 169C56.2222 170.778 55.2222 173 54.3333 175.667C53.6667 178.333 53.3333 181.222 53.3333 184.333ZM193.948 274.333C188.17 272.111 183.17 268.333 178.948 263C174.948 257.667 172.948 251.111 172.948 243.333C172.948 236.444 174.948 229.333 178.948 222C182.948 214.667 191.503 205 204.615 193L179.281 173V126.333L248.281 86.3333C250.726 89.8889 253.948 93.2222 257.948 96.3333C262.17 99.4444 267.059 101 272.615 101C277.059 101 280.837 99.6667 283.948 97C287.059 94.3333 288.837 91 289.281 87H289.615H298.948C297.615 99.6667 294.726 111 290.281 121C286.059 130.778 279.281 140 269.948 148.667L298.615 170V220.333L232.615 260.333C230.392 256.333 227.17 252.778 222.948 249.667C218.948 246.333 213.948 244.667 207.948 244.667C204.17 244.667 200.615 245.778 197.281 248C193.948 250.222 192.281 253.333 192.281 257.333C192.281 261.111 193.837 263.889 196.948 265.667L193.948 274.333ZM222.281 151.333L236.281 165.333L260.615 144.333C263.059 142.333 265.503 140.111 267.948 137.667C270.392 135 272.726 132.111 274.948 129C269.837 131.222 264.281 132.333 258.281 132.333C251.17 132.333 244.281 130.444 237.615 126.667C230.948 122.667 225.837 116.444 222.281 108V151.333ZM216.615 209.333C226.17 209.333 234.281 212 240.948 217.333C247.615 222.444 252.503 228.333 255.615 235V191.667L236.948 177L224.948 187.333C219.17 192.444 213.392 197.444 207.615 202.333C202.059 207.222 197.281 212.222 193.281 217.333C199.948 212 207.726 209.333 216.615 209.333ZM376.927 257L326.594 222.667V123L395.26 84.6667L430.594 113L398.927 137L369.26 112.333V199C374.372 208.111 380.705 214.222 388.26 217.333C396.038 220.222 402.26 221.778 406.927 222L426.26 208L430.594 214L381.594 257H376.927ZM438.859 235.333L433.193 228.333L448.859 215.333V127.667L528.859 86L562.193 137.333V138.667L490.526 183.667V198L530.526 225L567.193 196.333L571.859 204.333L503.193 260.333L453.859 223.667L438.859 235.333ZM490.526 115.333V172L523.859 151L496.859 111.667L490.526 115.333ZM630.714 262L592.38 231.667L605.047 220.333V131.667L592.38 117.333L579.38 125.333L574.714 119L621.047 87L646.714 115.667L683.38 87L721.047 119.333L735.047 108L741.047 115.333L725.047 128.333V215.667L739.38 228.333L752.047 218.667L758.38 228.333L709.047 262L675.38 231.667L686.714 220.333V138L662.714 117.333L648.38 128.667V220.333L662.714 233L630.714 262ZM789.26 274.333C783.483 272.111 778.483 268.333 774.26 263C770.26 257.667 768.26 251.111 768.26 243.333C768.26 236.444 770.26 229.333 774.26 222C778.26 214.667 786.816 205 799.927 193L774.594 173V126.333L843.594 86.3333C846.038 89.8889 849.26 93.2222 853.26 96.3333C857.483 99.4444 862.372 101 867.927 101C872.372 101 876.149 99.6667 879.26 97C882.372 94.3333 884.149 91 884.594 87H884.927H894.26C892.927 99.6667 890.038 111 885.594 121C881.372 130.778 874.594 140 865.26 148.667L893.927 170V220.333L827.927 260.333C825.705 256.333 822.483 252.778 818.26 249.667C814.26 246.333 809.26 244.667 803.26 244.667C799.483 244.667 795.927 245.778 792.594 248C789.26 250.222 787.594 253.333 787.594 257.333C787.594 261.111 789.149 263.889 792.26 265.667L789.26 274.333ZM817.594 151.333L831.594 165.333L855.927 144.333C858.372 142.333 860.816 140.111 863.26 137.667C865.705 135 868.038 132.111 870.26 129C865.149 131.222 859.594 132.333 853.594 132.333C846.483 132.333 839.594 130.444 832.927 126.667C826.26 122.667 821.149 116.444 817.594 108V151.333ZM811.927 209.333C821.483 209.333 829.594 212 836.26 217.333C842.927 222.444 847.816 228.333 850.927 235V191.667L832.26 177L820.26 187.333C814.483 192.444 808.705 197.444 802.927 202.333C797.372 207.222 792.594 212.222 788.594 217.333C795.26 212 803.038 209.333 811.927 209.333ZM954.24 73.3333L925.906 41L957.906 13.3333L986.24 45.6667L954.24 73.3333ZM963.906 258.667L931.906 230L920.573 238L915.906 231.667L936.573 217V129.333L925.573 115L912.573 123L907.906 116.333L952.573 86L978.24 116.333V217L989.24 228.333L1003.91 218.667L1011.91 225L963.906 258.667ZM1018.03 234.333L1012.03 227.333L1029.03 213.333V127.667L1104.03 84.6667L1152.03 121.333V212.333L1078.7 257L1031.7 223.333L1018.03 234.333ZM1110.7 231.667V135.667L1072.36 110V206L1110.7 231.667ZM1222.12 262L1183.79 231.667L1196.45 220.333V131.667L1183.79 117.333L1170.79 125.333L1166.12 119L1212.45 87L1238.12 115.667L1274.79 87L1312.45 119.333L1326.45 108L1332.45 115.333L1316.45 128.333V215.667L1330.79 228.333L1343.45 218.667L1349.79 228.333L1300.45 262L1266.79 231.667L1278.12 220.333V138L1254.12 117.333L1239.79 128.667V220.333L1254.12 233L1222.12 262Z" fill="#2F210F"/>
</g>
</g>
<defs>
<clipPath id="clip0_196_28">
<rect width="1350" height="227" fill="white"/>
</clipPath>
</defs>
</svg>
