<svg width="850" height="122" viewBox="0 0 850 122" fill="none" xmlns="http://www.w3.org/2000/svg">
<mask id="mask0_196_21" style="mask-type:luminance" maskUnits="userSpaceOnUse" x="0" y="0" width="850" height="72">
<path d="M850 0H0V72H850V0Z" fill="white"/>
</mask>
<g mask="url(#mask0_196_21)">
<path d="M-0.000976562 57.5628C0.846144 56.0714 2.14174 54.3565 3.88581 52.4179C5.67971 50.4792 7.92209 48.814 10.613 47.4221V33.4788H8.14632C5.40563 33.4788 4.0353 34.5476 4.0353 36.6851C4.0353 36.7348 4.0353 36.7845 4.0353 36.8342H2.31615C1.96733 35.9891 1.79293 35.0943 1.79293 34.1499C1.79293 31.7639 2.64005 29.8253 4.33428 28.334C6.07835 26.793 8.02173 26.0226 10.1645 26.0226C10.314 26.0226 10.4635 26.0226 10.613 26.0226V13.7196C10.613 12.3775 10.3638 11.3088 9.86545 10.5134C9.41698 9.71804 8.71939 9.32037 7.77262 9.32037C6.72615 9.32037 5.90394 9.69323 5.30597 10.4388C4.70801 11.1845 4.33428 12.0046 4.18479 12.8994H2.39089C2.49055 10.4637 3.46225 8.30139 5.30597 6.41243C7.19955 4.47379 9.59139 3.50447 12.4816 3.50447C13.6277 3.50447 14.8735 3.75301 16.2189 4.2501C17.5643 4.74718 18.7104 5.71651 19.6572 7.15806C20.604 8.5499 21.0774 10.6874 21.0774 13.5705V14.9126L24.142 12.6757V3.6536H26.3096V11.1099L39.0163 1.86408C42.6041 4.34951 45.6936 7.38175 48.2848 10.9608V45.8563L28.7014 56.3697C27.9041 55.7235 27.1069 55.127 26.3096 54.5802V64.7953V66.8831H10.613V52.1942C7.07496 53.1884 4.11005 54.9779 1.71818 57.5628H-0.000976562ZM31.6913 9.61864L26.3096 13.4959V27.5884L38.7174 21.2505V15.9565C36.6245 13.5705 34.2825 11.4579 31.6913 9.61864ZM22.1238 44.5888C22.7716 44.5888 23.4443 44.6136 24.142 44.6633V14.9872L21.0774 17.1495V44.5888C21.4262 44.5888 21.775 44.5888 22.1238 44.5888ZM26.3096 29.9744V35.4175L38.7174 29.0796V23.7111L26.3096 29.9744ZM38.7174 48.466V31.5402L26.3096 37.8035V44.9616C30.296 45.6077 33.8838 47.0991 37.073 49.4354L38.7174 48.466ZM21.0774 64.7953H24.142V53.3872C23.1453 52.8901 22.1238 52.4924 21.0774 52.1942V64.7953ZM64.8947 58.9794L56.6727 52.567L54.1313 54.3565L53.0849 52.9398L57.7191 49.659V30.049L55.2525 26.8427L52.3374 28.6322L51.291 27.141L61.3069 20.3557L66.8381 26.2462L71.9959 20.3557H72.8179C73.5655 21.5985 74.6867 22.2198 76.1814 22.2198C76.9291 22.2198 77.5766 22.0458 78.1246 21.6979C78.723 21.3002 79.196 20.8528 79.545 20.3557H81.7873C81.4881 23.4377 80.8652 25.7243 79.9185 27.2155C79.0215 28.7068 78.0503 29.6761 77.0034 30.1235C75.9572 30.5709 75.0602 30.7945 74.3125 30.7945C73.5151 30.7945 72.4941 30.5709 71.2482 30.1235C70.0522 29.6761 68.8563 28.8559 67.6603 27.6629V49.659L70.5755 51.9705L74.6118 49.2862L76.0322 50.9266L64.8947 58.9794ZM83.3661 53.5363L82.0207 51.9705L85.8327 48.8389V29.6761L102.651 20.0575L113.414 28.2594V48.6152L96.9703 58.6066L86.4312 51.0758L83.3661 53.5363ZM104.146 52.9398V31.4656L95.5499 25.7243V47.1985L104.146 52.9398ZM138.607 60.9181C140.152 57.9852 142.219 55.3756 144.811 53.089C147.452 50.7526 150.567 49.0626 154.155 48.0186C155.649 46.6268 157.044 45.1356 158.34 43.5448C159.685 41.9045 160.358 39.6924 160.358 36.9087V23.4874C160.358 21.1014 160.582 19.0136 161.031 17.2241C161.529 15.3849 162.401 13.819 163.647 12.5266H161.255C160.158 13.5208 159.287 14.6392 158.639 15.8819C157.991 17.1247 157.667 18.765 157.667 20.8031V26.619V34.2245C157.667 37.3064 157.019 39.8913 155.724 41.979C154.478 44.0668 152.809 45.7569 150.716 47.0494C148.673 48.292 146.48 49.2117 144.138 49.8081L143.465 48.0186C145.559 46.8257 146.829 45.061 147.277 42.7247C147.776 40.3884 148.025 37.6792 148.025 34.5973V34.3736H146.231C144.686 34.3736 143.54 34.7713 142.793 35.5666C142.095 36.362 141.821 37.4058 141.971 38.6983H140.55C139.753 37.3064 139.355 35.84 139.355 34.2991C139.355 31.4159 140.201 29.4027 141.896 28.2594C143.64 27.1161 145.683 26.3705 148.025 26.0226V24.233C148.025 21.9961 148.448 20.3557 149.296 19.3119C150.193 18.2182 151.314 17.2241 152.659 16.3293L158.564 12.5266H148.174C146.181 12.5266 144.761 11.8555 143.914 10.5134C143.116 9.12156 142.718 7.45634 142.718 5.51767C142.768 3.57903 143.042 1.73981 143.54 0L145.11 0.0745634C145.359 1.31729 145.957 2.18719 146.904 2.68427C147.9 3.18136 149.146 3.42991 150.641 3.42991H171.047C176.229 3.42991 180.365 4.5235 183.455 6.71068C186.594 8.84817 188.836 11.781 190.182 15.5092C191.527 19.2373 192.2 23.4874 192.2 28.2594C192.2 32.1367 191.726 35.8897 190.779 39.5184C189.833 43.0975 188.687 46.2788 187.342 49.0626L168.655 59.2777C164.768 56.5437 160.458 55.1767 155.724 55.1767C152.983 55.1767 150.292 55.6738 147.652 56.668C145.06 57.6622 142.768 59.0789 140.775 60.9181H138.607ZM173.513 13.1977C172.716 12.9491 171.894 12.7752 171.047 12.6757C170.199 12.5763 169.352 12.5266 168.506 12.5266V27.5884L180.839 21.3996C180.191 19.4113 179.269 17.7212 178.073 16.3293C176.877 14.8878 175.357 13.8439 173.513 13.1977ZM161.704 46.9748C163.248 46.9748 164.793 47.1239 166.338 47.4221V12.8994C164.843 13.993 163.821 15.4097 163.273 17.1495C162.725 18.8893 162.451 21.0019 162.451 23.4874V36.9087C162.451 39.2947 162.003 41.3079 161.106 42.9484C160.209 44.5391 159.137 45.9806 157.892 47.273C159.137 47.0742 160.408 46.9748 161.704 46.9748ZM168.506 29.9744V35.7157L182.034 28.8559C181.935 26.9173 181.71 25.1278 181.362 23.4874L168.506 29.9744ZM177.924 52.4179C179.169 49.2365 180.166 45.906 180.913 42.4264C181.71 38.9468 182.109 35.2186 182.109 31.2419L168.506 38.1018V47.8695C171.993 48.7643 175.133 50.2804 177.924 52.4179ZM195.601 53.76L194.33 52.1942L197.843 49.2862V29.6761L215.782 20.3557L223.257 31.8385V32.1367L207.187 42.2027V45.4089L216.156 51.4486L224.378 45.0361L225.424 46.8257L210.027 59.3523L198.964 51.1503L195.601 53.76ZM207.187 26.9173V39.593L214.661 34.8955L208.606 26.0971L207.187 26.9173ZM228.157 53.5363L226.812 51.9705L230.624 48.8389V29.6761L247.441 20.0575L258.205 28.2594V48.6152L241.761 58.6066L231.222 51.0758L228.157 53.5363ZM248.937 52.9398V31.4656L240.341 25.7243V47.1985L248.937 52.9398ZM281.529 53.76L280.259 52.1942L283.771 49.2862V29.6761L301.71 20.3557L309.185 31.8385V32.1367L293.115 42.2027V45.4089L302.085 51.4486L310.306 45.0361L311.353 46.8257L295.955 59.3523L284.893 51.1503L281.529 53.76ZM293.115 26.9173V39.593L300.589 34.8955L294.535 26.0971L293.115 26.9173ZM324.999 58.6812L317.075 51.8959L314.235 53.6854L313.188 52.2687L318.197 49.0626V31.0928C318.197 29.6513 317.773 28.7068 316.926 28.2594C316.129 27.8121 315.357 27.5884 314.609 27.5884V26.4699L326.793 14.3161H328.212V22.8909H337.108L333.594 26.9918H328.212V49.7336L331.726 53.3127L334.193 51.9705L335.239 53.3872L324.999 58.6812ZM362.606 71.5806V52.7161C361.311 52.4676 360.015 52.2687 358.719 52.1196L362.606 48.9134V30.2727C362.606 29.6761 362.382 28.9802 361.933 28.1849C361.535 27.3895 360.763 26.9918 359.616 26.9918C359.018 26.9918 358.47 27.1907 357.972 27.5884L357.15 26.3953L366.194 20.3557C368.387 21.7476 370.081 23.5868 371.276 25.8734V27.2901L380.694 20.2066L387.945 26.619L390.187 24.7549L391.533 26.3953L388.693 28.6322V49.3608C384.307 51.8462 380.172 54.7293 376.285 58.0101C374.69 57.0657 373.021 56.2206 371.276 55.475V58.8303C371.276 60.2718 371.526 61.4649 372.024 62.4093C372.572 63.3538 373.469 63.9255 374.715 64.1243V65.1682L364.027 71.5806H362.606ZM374.491 27.2155L371.276 29.7507V49.9573C374.017 51.0012 376.733 52.1693 379.424 53.4618V31.3165L374.491 27.2155ZM406.068 58.9794L397.846 52.567L395.305 54.3565L394.259 52.9398L398.893 49.659V30.049L396.426 26.8427L393.511 28.6322L392.465 27.141L402.48 20.3557L408.012 26.2462L413.17 20.3557H413.992C414.739 21.5985 415.86 22.2198 417.355 22.2198C418.103 22.2198 418.75 22.0458 419.298 21.6979C419.897 21.3002 420.37 20.8528 420.719 20.3557H422.961C422.662 23.4377 422.039 25.7243 421.092 27.2155C420.195 28.7068 419.224 29.6761 418.177 30.1235C417.131 30.5709 416.234 30.7945 415.486 30.7945C414.689 30.7945 413.668 30.5709 412.422 30.1235C411.226 29.6761 410.03 28.8559 408.834 27.6629V49.659L411.749 51.9705L415.785 49.2862L417.206 50.9266L406.068 58.9794ZM424.54 53.5363L423.194 51.9705L427.006 48.8389V29.6761L443.824 20.0575L454.588 28.2594V48.6152L438.144 58.6066L427.605 51.0758L424.54 53.5363ZM445.32 52.9398V31.4656L436.724 25.7243V47.1985L445.32 52.9398ZM507.96 60.3961C503.026 60.3961 498.591 59.2528 494.655 56.9662C490.768 54.6796 487.704 51.5728 485.462 47.6458C483.219 43.7188 482.098 39.3196 482.098 34.4482C482.098 30.6703 482.795 27.0913 484.19 23.7111C485.586 20.2811 487.48 17.2241 489.871 14.5398C492.313 11.8555 495.104 9.66834 498.243 7.97823C501.382 6.23845 504.671 5.19456 508.11 4.8466L515.061 0.521941C516.954 2.06291 518.997 3.45476 521.19 4.69748C523.382 5.9402 525.7 7.00896 528.141 7.90371L530.608 5.44311L532.177 6.93438L519.77 19.2373C522.36 19.7841 524.728 20.8777 526.87 22.518C529.063 24.1585 530.807 26.2462 532.103 28.7813C533.448 31.2668 534.121 34.1002 534.121 37.2815C534.121 40.7115 533.398 43.8431 531.953 46.6765C530.558 49.5099 528.639 51.9456 526.198 53.9837C523.756 56.0217 520.965 57.5876 517.826 58.6812C514.687 59.8245 511.398 60.3961 507.96 60.3961ZM506.988 22.7417V28.7813L520.592 15.36C518.3 14.2664 516.057 12.8994 513.865 11.2591C511.722 9.56894 509.679 7.95342 507.735 6.41243C507.487 6.46213 507.262 6.51184 507.063 6.56156L506.988 22.7417ZM492.413 26.3208C492.413 29.1542 492.587 32.0373 492.936 34.9701C493.285 37.9029 493.858 40.6866 494.655 43.3212C496.001 41.8796 496.847 40.0155 497.196 37.7289C497.296 37.033 497.346 36.3123 497.346 35.5666C497.346 34.821 497.346 34.1002 497.346 33.4043V11.5573C494.057 14.9872 492.413 19.9084 492.413 26.3208ZM513.117 27.141V38.1018L521.638 33.8517C519.495 30.72 516.655 28.4831 513.117 27.141ZM506.465 38.0272C505.767 40.2144 504.471 42.0785 502.578 43.6194C500.684 45.1107 498.467 46.1546 495.926 46.7511C497.321 49.9324 499.214 52.5421 501.607 54.5802C504.048 56.6183 507.162 57.6373 510.95 57.6373H511.025V27.8121L506.988 31.7639V33.0314C506.988 33.8765 506.963 34.7216 506.913 35.5666C506.864 36.4117 506.714 37.2318 506.465 38.0272ZM513.117 40.4878V45.9309L524.329 40.3387C524.03 38.6983 523.507 37.1573 522.759 35.7157L513.117 40.4878ZM524.553 43.2466C524.553 42.9981 524.553 42.7744 524.553 42.5756L513.117 48.3169V57.4882C516.506 56.9414 519.246 55.3259 521.34 52.6416C523.482 49.9076 524.553 46.776 524.553 43.2466ZM549.401 58.6066L541.552 51.8213L538.637 53.6109L537.59 52.1942L542.599 48.988V16.4784C542.599 14.7386 542.399 13.5456 542.001 12.8994C541.652 12.2035 540.655 11.607 539.011 11.1099V9.99143L551.195 1.4167H552.614V49.659L555.529 52.567L557.622 50.7775L558.744 52.1942L549.401 58.6066ZM560.396 53.5363L559.051 51.9705L562.863 48.8389V29.6761L579.68 20.0575L590.444 28.2594V48.6152L574 58.6066L563.461 51.0758L560.396 53.5363ZM581.176 52.9398V31.4656L572.58 25.7243V47.1985L581.176 52.9398ZM607.356 58.9794L599.134 52.567L596.593 54.3565L595.547 52.9398L600.181 49.659V30.049L597.714 26.8427L594.799 28.6322L593.753 27.141L603.768 20.3557L609.3 26.2462L614.458 20.3557H615.28C616.027 21.5985 617.148 22.2198 618.643 22.2198C619.391 22.2198 620.038 22.0458 620.586 21.6979C621.185 21.3002 621.658 20.8528 622.007 20.3557H624.249C623.95 23.4377 623.327 25.7243 622.38 27.2155C621.483 28.7068 620.512 29.6761 619.465 30.1235C618.419 30.5709 617.522 30.7945 616.774 30.7945C615.977 30.7945 614.956 30.5709 613.71 30.1235C612.514 29.6761 611.318 28.8559 610.122 27.6629V49.659L613.037 51.9705L617.073 49.2862L618.494 50.9266L607.356 58.9794ZM634.648 17.5224L628.294 10.2897L635.47 4.10097L641.824 11.3336L634.648 17.5224ZM636.815 58.9794L629.64 52.567L627.099 54.3565L626.052 52.9398L630.687 49.659V30.049L628.22 26.8427L625.305 28.6322L624.258 27.141L634.275 20.3557L640.03 27.141V49.659L642.496 52.1942L645.785 50.0318L647.579 51.4486L636.815 58.9794ZM659.417 58.9794C657.872 58.7806 656.328 58.2586 654.782 57.4136C653.238 56.5685 651.942 55.4501 650.896 54.0582C649.899 52.6664 649.401 51.0261 649.401 49.1371C649.401 47.1488 650.123 45.235 651.569 43.3957C653.063 41.5565 655.206 39.8913 657.997 38.4C656.302 37.6544 654.857 36.7348 653.661 35.6412C652.516 34.4979 651.942 33.0563 651.942 31.3165C651.942 29.6761 652.441 28.3588 653.437 27.3647C654.433 26.3705 655.48 25.6 656.576 25.0532L664.799 20.7285L675.861 27.8121L678.851 25.426L680.196 26.9918L676.309 30.1981V48.988L679.897 52.567L683.111 50.4047L683.411 51.8213L673.021 58.9794L667.34 53.2381L659.417 58.9794ZM654.035 30.8691C654.035 32.4598 654.758 33.7771 656.203 34.821C657.697 35.8649 659.442 36.7099 661.435 37.3561C663.478 37.9526 665.322 38.4497 666.966 38.8474V31.8385L658.146 26.3953C657.05 26.9918 656.078 27.6629 655.231 28.4085C654.433 29.1045 654.035 29.9247 654.035 30.8691ZM658.445 42.3519C658.445 43.7934 658.694 45.3095 659.193 46.9002C659.741 48.4412 660.513 49.7833 661.51 50.9266C662.556 52.0202 663.851 52.567 665.397 52.567C666.094 52.567 666.617 52.4924 666.966 52.3433V41.0097C665.77 40.7612 664.5 40.4878 663.154 40.1895C661.859 39.8416 660.588 39.419 659.342 38.9219C659.093 39.3196 658.868 39.8167 658.669 40.4132C658.52 41.0097 658.445 41.6559 658.445 42.3519ZM734.881 59.8742C731.293 59.8742 727.909 59.1534 724.714 57.7119C721.574 56.2206 718.813 54.1825 716.417 51.5977C714.076 49.0129 712.233 46.08 710.888 42.7993C709.543 39.5184 708.87 36.0637 708.87 32.435C708.87 27.8618 709.795 23.7111 711.638 19.9829C713.53 16.205 716.024 12.9989 719.108 10.3643C722.247 7.72973 725.61 5.84078 729.198 4.69748L729.948 5.81592C726.613 7.50604 723.943 9.99144 721.953 13.2723L741.608 1.26757C743.5 2.65942 745.47 3.87728 747.516 4.92117C749.604 5.96505 751.874 6.88466 754.313 7.68002L756.632 5.6668L757.228 6.41243L748.336 15.6583C745.196 14.4155 742.155 12.9491 739.219 11.2591V24.3076H756.632L747.516 33.7771H739.219V51.374C742.856 50.9266 745.995 49.6839 748.637 47.6458C751.279 45.6077 753.297 43.2963 754.691 40.7115H756.107C755.96 44.4396 754.916 47.7452 752.967 50.6284C751.075 53.5115 748.56 55.7732 745.42 57.4136C742.281 59.054 738.77 59.8742 734.881 59.8742ZM733.76 36.4614L720.754 41.8299C722.247 44.7628 724.342 47.1239 727.033 48.9134C729.724 50.6532 732.989 51.5231 736.822 51.5231C736.927 51.5231 737.026 51.5231 737.124 51.5231V9.99143C736.178 9.44465 735.253 8.84817 734.356 8.20192L733.76 8.57478V36.4614ZM717.986 29.005C717.986 33.1309 718.638 36.8093 719.935 40.0404L724.118 38.3255V14.4652L720.159 16.8513C718.715 20.4303 717.986 24.4815 717.986 29.005ZM768.23 17.5224L761.874 10.2897L769.049 4.10097L775.405 11.3336L768.23 17.5224ZM770.395 58.9794L763.219 52.567L760.676 54.3565L759.632 52.9398L764.263 49.659V30.049L761.797 26.8427L758.882 28.6322L757.838 27.141L767.851 20.3557L773.611 27.141V49.659L776.078 52.1942L779.364 50.0318L781.158 51.4486L770.395 58.9794ZM794.718 58.9049L784.55 50.4047L786.939 48.466V30.9437C786.939 29.8004 786.715 28.8062 786.267 27.9612C785.818 27.1161 785.047 26.6936 783.954 26.6936C783.303 26.6936 782.728 26.8427 782.23 27.141C781.782 27.3895 781.382 27.6629 781.039 27.9612L780.289 26.9173L789.932 20.654C791.676 21.3499 793.092 22.4186 794.192 23.8602C795.285 25.252 795.839 27.1658 795.839 29.6016V47.5712L800.548 51.9705L804.058 49.3608V45.7817V30.4218L800.169 26.9918L807.198 20.5794L812.131 24.8295L814.598 22.8909L815.866 24.4567L812.657 27.0664V44.8125L812.727 47.8695C812.727 49.0129 812.881 50.0318 813.175 50.9266C813.476 51.8213 814.002 52.5173 814.745 53.0144L817.513 50.7029L818.858 52.567L809.889 58.7557C808.543 58.706 807.324 58.0847 806.224 56.8917C805.131 55.6987 804.458 53.9091 804.206 51.5231L794.718 58.9049ZM825.922 62.4839C824.625 61.9868 823.504 61.1418 822.558 59.9488C821.661 58.7557 821.213 57.2894 821.213 55.5495C821.213 54.0085 821.661 52.4179 822.558 50.7775C823.455 49.1371 825.375 46.9748 828.311 44.2905L822.628 39.8167V29.3779L838.101 20.4303C838.654 21.2256 839.376 21.9713 840.273 22.6672C841.219 23.3631 842.312 23.7111 843.559 23.7111C844.554 23.7111 845.402 23.4128 846.103 22.8163C846.797 22.2198 847.196 21.4742 847.294 20.5794H847.371H849.467C849.165 23.4128 848.521 25.948 847.518 28.1849C846.572 30.3721 845.052 32.435 842.964 34.3736L849.389 39.1456V50.4047L834.59 59.3523C834.092 58.4575 833.371 57.6622 832.425 56.9662C831.528 56.2206 830.406 55.8478 829.061 55.8478C828.213 55.8478 827.414 56.0963 826.664 56.5934C825.922 57.0905 825.543 57.7864 825.543 58.6812C825.543 59.5263 825.894 60.1476 826.594 60.5452L825.922 62.4839ZM832.27 34.9701L835.41 38.1018L840.868 33.4043C841.415 32.9569 841.969 32.4598 842.515 31.913C843.062 31.3165 843.587 30.6703 844.085 29.9744C842.936 30.4715 841.688 30.72 840.343 30.72C838.752 30.72 837.204 30.2975 835.711 29.4524C834.218 28.5577 833.069 27.1658 832.27 25.2769V34.9701ZM831.002 47.9441C833.146 47.9441 834.961 48.5406 836.461 49.7336C837.953 50.8769 839.054 52.1942 839.747 53.6854V43.9922L835.564 40.7115L832.873 43.0229C831.577 44.1662 830.28 45.2847 828.984 46.3783C827.737 47.4718 826.664 48.5903 825.768 49.7336C827.267 48.5406 829.012 47.9441 831.002 47.9441Z" fill="#2F210F"/>
</g>
<path d="M24.0598 90V111H22.1098V90H24.0598ZM30.8698 100.2V101.1H23.9698V100.2H30.8698ZM32.1598 90V90.93H23.9698V90H32.1598ZM30.8698 101.04V103.02H30.5698V102.57C30.5698 102.17 30.4298 101.83 30.1498 101.55C29.8698 101.25 29.5298 101.1 29.1298 101.1V101.04H30.8698ZM30.8698 98.28V100.26H29.1298V100.2C29.5298 100.18 29.8698 100.03 30.1498 99.75C30.4298 99.45 30.5698 99.1 30.5698 98.7V98.28H30.8698ZM32.1598 90.84V92.85H31.8598V92.4C31.8598 92 31.7098 91.66 31.4098 91.38C31.1298 91.08 30.7898 90.93 30.3898 90.93V90.84H32.1598ZM32.1598 89.46V90.33L28.4998 90C28.9398 90 29.3998 89.97 29.8798 89.91C30.3798 89.85 30.8398 89.78 31.2598 89.7C31.6798 89.62 31.9798 89.54 32.1598 89.46ZM22.1998 108.81V111H19.7998V110.7C19.7998 110.7 19.8598 110.7 19.9798 110.7C20.1198 110.7 20.1898 110.7 20.1898 110.7C20.7098 110.7 21.1498 110.52 21.5098 110.16C21.8898 109.78 22.0898 109.33 22.1098 108.81H22.1998ZM22.1998 92.19H22.1098C22.1098 91.67 21.9198 91.23 21.5398 90.87C21.1598 90.49 20.7098 90.3 20.1898 90.3C20.1898 90.3 20.1298 90.3 20.0098 90.3C19.8898 90.3 19.8298 90.3 19.8298 90.3L19.7998 90H22.1998V92.19ZM23.9698 108.81H24.0598C24.0798 109.33 24.2698 109.78 24.6298 110.16C25.0098 110.52 25.4598 110.7 25.9798 110.7C25.9798 110.7 26.0398 110.7 26.1598 110.7C26.2798 110.7 26.3498 110.7 26.3698 110.7V111H23.9698V108.81ZM61.5143 89.58C63.6543 89.58 65.5343 90.04 67.1543 90.96C68.7743 91.86 70.0343 93.13 70.9343 94.77C71.8543 96.41 72.3143 98.32 72.3143 100.5C72.3143 102.68 71.8543 104.59 70.9343 106.23C70.0343 107.87 68.7743 109.15 67.1543 110.07C65.5343 110.97 63.6543 111.42 61.5143 111.42C59.3943 111.42 57.5243 110.97 55.9043 110.07C54.2843 109.15 53.0143 107.87 52.0943 106.23C51.1943 104.59 50.7443 102.68 50.7443 100.5C50.7443 98.32 51.1943 96.41 52.0943 94.77C53.0143 93.13 54.2843 91.86 55.9043 90.96C57.5243 90.04 59.3943 89.58 61.5143 89.58ZM61.5143 110.52C63.2143 110.52 64.6943 110.1 65.9543 109.26C67.2343 108.42 68.2243 107.25 68.9243 105.75C69.6443 104.25 70.0043 102.5 70.0043 100.5C70.0043 98.5 69.6443 96.75 68.9243 95.25C68.2243 93.75 67.2343 92.58 65.9543 91.74C64.6943 90.9 63.2143 90.48 61.5143 90.48C59.8343 90.48 58.3543 90.9 57.0743 91.74C55.8143 92.58 54.8243 93.75 54.1043 95.25C53.4043 96.75 53.0543 98.5 53.0543 100.5C53.0543 102.5 53.4043 104.25 54.1043 105.75C54.8243 107.25 55.8143 108.42 57.0743 109.26C58.3543 110.1 59.8343 110.52 61.5143 110.52ZM93.8651 90H98.0951C98.9951 90 99.8051 90.13 100.525 90.39C101.265 90.65 101.885 91.03 102.385 91.53C102.885 92.01 103.265 92.6 103.525 93.3C103.805 93.98 103.945 94.76 103.945 95.64C103.945 96.6 103.715 97.52 103.255 98.4C102.815 99.28 102.205 100 101.425 100.56C100.665 101.1 99.8051 101.37 98.8451 101.37C99.1851 101.51 99.5551 101.8 99.9551 102.24C100.355 102.66 100.705 103.07 101.005 103.47C101.005 103.47 101.135 103.67 101.395 104.07C101.675 104.45 102.015 104.92 102.415 105.48C102.835 106.04 103.255 106.59 103.675 107.13C104.095 107.67 104.455 108.1 104.755 108.42C105.155 108.86 105.555 109.25 105.955 109.59C106.355 109.93 106.785 110.2 107.245 110.4C107.725 110.6 108.255 110.7 108.835 110.7V111H107.185C106.265 111 105.465 110.86 104.785 110.58C104.125 110.3 103.565 109.96 103.105 109.56C102.645 109.14 102.255 108.74 101.935 108.36C101.875 108.28 101.705 108.05 101.425 107.67C101.165 107.29 100.845 106.84 100.465 106.32C100.105 105.78 99.7451 105.25 99.3851 104.73C99.0251 104.21 98.7151 103.77 98.4551 103.41C98.1951 103.03 98.0451 102.81 98.0051 102.75C97.6251 102.25 97.2051 101.79 96.7451 101.37C96.2851 100.95 95.7851 100.74 95.2451 100.74V100.44C95.2451 100.44 95.3951 100.45 95.6951 100.47C96.0151 100.47 96.3951 100.46 96.8351 100.44C97.3551 100.42 97.9251 100.34 98.5451 100.2C99.1651 100.06 99.7451 99.77 100.285 99.33C100.825 98.89 101.235 98.22 101.515 97.32C101.575 97.1 101.625 96.83 101.665 96.51C101.705 96.17 101.715 95.84 101.695 95.52C101.675 94.16 101.325 93.08 100.645 92.28C99.9851 91.46 99.0951 91.02 97.9751 90.96C97.4151 90.92 96.8351 90.91 96.2351 90.93C95.6551 90.93 95.1651 90.93 94.7651 90.93C94.3651 90.93 94.1651 90.93 94.1651 90.93C94.1651 90.91 94.1351 90.83 94.0751 90.69C94.0351 90.53 93.9851 90.38 93.9251 90.24C93.8851 90.08 93.8651 90 93.8651 90ZM94.2551 90V111H92.3051V90H94.2551ZM92.3951 108.81V111H89.9951V110.7C89.9951 110.7 90.0551 110.7 90.1751 110.7C90.3151 110.7 90.3851 110.7 90.3851 110.7C90.9051 110.7 91.3451 110.52 91.7051 110.16C92.0851 109.78 92.2851 109.33 92.3051 108.81H92.3951ZM92.3951 92.19H92.3051C92.2851 91.67 92.0851 91.23 91.7051 90.87C91.3451 90.49 90.9051 90.3 90.3851 90.3C90.3851 90.3 90.3151 90.3 90.1751 90.3C90.0551 90.3 89.9951 90.3 89.9951 90.3V90H92.3951V92.19ZM94.1651 108.81H94.2551C94.2551 109.33 94.4451 109.78 94.8251 110.16C95.2051 110.52 95.6551 110.7 96.1751 110.7C96.1751 110.7 96.2351 110.7 96.3551 110.7C96.4751 110.7 96.5351 110.7 96.5351 110.7V111H94.1651V108.81ZM167.268 102.6V107.55C166.808 108.15 166.188 108.75 165.408 109.35C164.628 109.95 163.668 110.45 162.528 110.85C161.408 111.23 160.088 111.42 158.568 111.42C156.448 111.4 154.578 110.94 152.958 110.04C151.338 109.12 150.068 107.85 149.148 106.23C148.248 104.59 147.798 102.68 147.798 100.5C147.798 98.32 148.248 96.41 149.148 94.77C150.068 93.13 151.338 91.86 152.958 90.96C154.578 90.04 156.448 89.58 158.568 89.58C159.668 89.58 160.658 89.67 161.538 89.85C162.418 90.03 163.208 90.28 163.908 90.6C164.628 90.9 165.278 91.24 165.858 91.62L166.458 95.85H166.188C165.888 94.69 165.388 93.72 164.688 92.94C164.008 92.14 163.148 91.53 162.108 91.11C161.068 90.69 159.888 90.48 158.568 90.48C156.888 90.48 155.408 90.9 154.128 91.74C152.848 92.58 151.848 93.75 151.128 95.25C150.408 96.75 150.048 98.5 150.048 100.5C150.048 102.5 150.408 104.25 151.128 105.75C151.848 107.25 152.848 108.42 154.128 109.26C155.408 110.08 156.888 110.5 158.568 110.52C159.448 110.52 160.288 110.42 161.088 110.22C161.908 110 162.678 109.7 163.398 109.32C164.118 108.92 164.758 108.45 165.318 107.91L165.348 102.6C165.348 101.7 164.838 101.25 163.818 101.25H163.338V100.95H169.218V101.25H168.768C167.728 101.25 167.228 101.7 167.268 102.6ZM197.804 89.58C199.944 89.58 201.824 90.04 203.444 90.96C205.064 91.86 206.324 93.13 207.224 94.77C208.144 96.41 208.604 98.32 208.604 100.5C208.604 102.68 208.144 104.59 207.224 106.23C206.324 107.87 205.064 109.15 203.444 110.07C201.824 110.97 199.944 111.42 197.804 111.42C195.684 111.42 193.814 110.97 192.194 110.07C190.574 109.15 189.304 107.87 188.384 106.23C187.484 104.59 187.034 102.68 187.034 100.5C187.034 98.32 187.484 96.41 188.384 94.77C189.304 93.13 190.574 91.86 192.194 90.96C193.814 90.04 195.684 89.58 197.804 89.58ZM197.804 110.52C199.504 110.52 200.984 110.1 202.244 109.26C203.524 108.42 204.514 107.25 205.214 105.75C205.934 104.25 206.294 102.5 206.294 100.5C206.294 98.5 205.934 96.75 205.214 95.25C204.514 93.75 203.524 92.58 202.244 91.74C200.984 90.9 199.504 90.48 197.804 90.48C196.124 90.48 194.644 90.9 193.364 91.74C192.104 92.58 191.114 93.75 190.394 95.25C189.694 96.75 189.344 98.5 189.344 100.5C189.344 102.5 189.694 104.25 190.394 105.75C191.114 107.25 192.104 108.42 193.364 109.26C194.644 110.1 196.124 110.52 197.804 110.52ZM236.454 90C238.594 90 240.464 90.44 242.064 91.32C243.684 92.18 244.944 93.4 245.844 94.98C246.764 96.56 247.224 98.4 247.224 100.5C247.224 102.6 246.764 104.44 245.844 106.02C244.944 107.58 243.684 108.8 242.064 109.68C240.464 110.56 238.594 111 236.454 111H230.034L230.004 110.1C230.004 110.1 230.214 110.1 230.634 110.1C231.074 110.1 231.614 110.1 232.254 110.1C232.914 110.1 233.564 110.1 234.204 110.1C234.844 110.1 235.374 110.1 235.794 110.1C236.234 110.1 236.454 110.1 236.454 110.1C238.174 110.1 239.664 109.7 240.924 108.9C242.204 108.1 243.194 106.98 243.894 105.54C244.614 104.1 244.974 102.42 244.974 100.5C244.974 98.58 244.614 96.9 243.894 95.46C243.194 94.02 242.204 92.9 240.924 92.1C239.644 91.3 238.154 90.9 236.454 90.9C236.454 90.9 236.224 90.9 235.764 90.9C235.324 90.9 234.764 90.9 234.084 90.9C233.424 90.9 232.754 90.9 232.074 90.9C231.414 90.9 230.854 90.9 230.394 90.9C229.934 90.9 229.704 90.9 229.704 90.9V90H236.454ZM230.544 90V111H228.594V90H230.544ZM228.684 108.81V111H226.284V110.7C226.284 110.7 226.344 110.7 226.464 110.7C226.604 110.7 226.674 110.7 226.674 110.7C227.194 110.7 227.634 110.52 227.994 110.16C228.374 109.78 228.574 109.33 228.594 108.81H228.684ZM228.684 92.19H228.594C228.594 91.67 228.404 91.23 228.024 90.87C227.644 90.49 227.194 90.3 226.674 90.3C226.674 90.3 226.614 90.3 226.494 90.3C226.374 90.3 226.314 90.3 226.314 90.3L226.284 90H228.684V92.19ZM297.247 89.58L306.127 110.82H303.577L296.647 92.43L297.247 89.58ZM290.797 108.81C290.657 109.21 290.637 109.55 290.737 109.83C290.837 110.11 290.997 110.33 291.217 110.49C291.457 110.63 291.697 110.7 291.937 110.7H292.207V111H286.177V110.7C286.177 110.7 286.227 110.7 286.327 110.7C286.407 110.7 286.447 110.7 286.447 110.7C286.907 110.7 287.377 110.56 287.857 110.28C288.357 109.98 288.767 109.49 289.087 108.81H290.797ZM297.247 89.58L297.517 91.68L289.987 110.91H288.187L295.867 92.67C295.867 92.67 295.917 92.55 296.017 92.31C296.137 92.05 296.267 91.74 296.407 91.38C296.567 91.02 296.697 90.67 296.797 90.33C296.917 89.99 296.977 89.74 296.977 89.58H297.247ZM301.477 102.81V103.71H292.087V102.81H301.477ZM302.827 108.81H305.287C305.587 109.49 305.987 109.98 306.487 110.28C306.987 110.56 307.467 110.7 307.927 110.7C307.927 110.7 307.967 110.7 308.047 110.7C308.127 110.7 308.167 110.7 308.167 110.7V111H301.417V110.7H301.687C302.067 110.7 302.407 110.54 302.707 110.22C303.007 109.88 303.047 109.41 302.827 108.81ZM326.614 89.55L344.044 108.15L344.314 111.42L326.884 92.85L326.614 89.55ZM326.674 108.87V111H324.184V110.7C324.184 110.7 324.274 110.7 324.454 110.7C324.634 110.7 324.734 110.7 324.754 110.7C325.254 110.7 325.684 110.52 326.044 110.16C326.404 109.8 326.584 109.37 326.584 108.87H326.674ZM327.964 108.87C327.964 109.37 328.144 109.8 328.504 110.16C328.864 110.52 329.294 110.7 329.794 110.7C329.814 110.7 329.914 110.7 330.094 110.7C330.274 110.7 330.364 110.7 330.364 110.7V111H327.874V108.87H327.964ZM326.614 89.55L327.934 91.23L327.964 111H326.584V93.3C326.584 92.28 326.534 91.4 326.434 90.66C326.354 89.92 326.314 89.55 326.314 89.55H326.614ZM344.314 90V107.58C344.314 108.22 344.334 108.84 344.374 109.44C344.414 110.02 344.454 110.5 344.494 110.88C344.554 111.24 344.584 111.42 344.584 111.42H344.314L342.964 109.83V90H344.314ZM346.714 90V90.3C346.714 90.3 346.624 90.3 346.444 90.3C346.264 90.3 346.174 90.3 346.174 90.3C345.674 90.3 345.244 90.48 344.884 90.84C344.524 91.18 344.334 91.61 344.314 92.13H344.224V90H346.714ZM340.534 90H343.024V92.13H342.964C342.944 91.61 342.754 91.18 342.394 90.84C342.054 90.48 341.624 90.3 341.104 90.3C341.104 90.3 341.014 90.3 340.834 90.3C340.654 90.3 340.554 90.3 340.534 90.3V90ZM374.736 90C376.876 90 378.746 90.44 380.346 91.32C381.966 92.18 383.226 93.4 384.126 94.98C385.046 96.56 385.506 98.4 385.506 100.5C385.506 102.6 385.046 104.44 384.126 106.02C383.226 107.58 381.966 108.8 380.346 109.68C378.746 110.56 376.876 111 374.736 111H368.316L368.286 110.1C368.286 110.1 368.496 110.1 368.916 110.1C369.356 110.1 369.896 110.1 370.536 110.1C371.196 110.1 371.846 110.1 372.486 110.1C373.126 110.1 373.656 110.1 374.076 110.1C374.516 110.1 374.736 110.1 374.736 110.1C376.456 110.1 377.946 109.7 379.206 108.9C380.486 108.1 381.476 106.98 382.176 105.54C382.896 104.1 383.256 102.42 383.256 100.5C383.256 98.58 382.896 96.9 382.176 95.46C381.476 94.02 380.486 92.9 379.206 92.1C377.926 91.3 376.436 90.9 374.736 90.9C374.736 90.9 374.506 90.9 374.046 90.9C373.606 90.9 373.046 90.9 372.366 90.9C371.706 90.9 371.036 90.9 370.356 90.9C369.696 90.9 369.136 90.9 368.676 90.9C368.216 90.9 367.986 90.9 367.986 90.9V90H374.736ZM368.826 90V111H366.876V90H368.826ZM366.966 108.81V111H364.566V110.7C364.566 110.7 364.626 110.7 364.746 110.7C364.886 110.7 364.956 110.7 364.956 110.7C365.476 110.7 365.916 110.52 366.276 110.16C366.656 109.78 366.856 109.33 366.876 108.81H366.966ZM366.966 92.19H366.876C366.876 91.67 366.686 91.23 366.306 90.87C365.926 90.49 365.476 90.3 364.956 90.3C364.956 90.3 364.896 90.3 364.776 90.3C364.656 90.3 364.596 90.3 364.596 90.3L364.566 90H366.966V92.19ZM430.818 90V111H428.868V90H430.818ZM437.628 100.2V101.1H430.728V100.2H437.628ZM438.918 90V90.93H430.728V90H438.918ZM437.628 101.04V103.02H437.328V102.57C437.328 102.17 437.188 101.83 436.908 101.55C436.628 101.25 436.288 101.1 435.888 101.1V101.04H437.628ZM437.628 98.28V100.26H435.888V100.2C436.288 100.18 436.628 100.03 436.908 99.75C437.188 99.45 437.328 99.1 437.328 98.7V98.28H437.628ZM438.918 90.84V92.85H438.618V92.4C438.618 92 438.468 91.66 438.168 91.38C437.888 91.08 437.548 90.93 437.148 90.93V90.84H438.918ZM438.918 89.46V90.33L435.258 90C435.698 90 436.158 89.97 436.638 89.91C437.138 89.85 437.598 89.78 438.018 89.7C438.438 89.62 438.738 89.54 438.918 89.46ZM428.958 108.81V111H426.558V110.7C426.558 110.7 426.618 110.7 426.738 110.7C426.878 110.7 426.948 110.7 426.948 110.7C427.468 110.7 427.908 110.52 428.268 110.16C428.648 109.78 428.848 109.33 428.868 108.81H428.958ZM428.958 92.19H428.868C428.868 91.67 428.678 91.23 428.298 90.87C427.918 90.49 427.468 90.3 426.948 90.3C426.948 90.3 426.888 90.3 426.768 90.3C426.648 90.3 426.588 90.3 426.588 90.3L426.558 90H428.958V92.19ZM430.728 108.81H430.818C430.838 109.33 431.028 109.78 431.388 110.16C431.768 110.52 432.218 110.7 432.738 110.7C432.738 110.7 432.798 110.7 432.918 110.7C433.038 110.7 433.108 110.7 433.128 110.7V111H430.728V108.81ZM468.272 89.58C470.412 89.58 472.292 90.04 473.912 90.96C475.532 91.86 476.792 93.13 477.692 94.77C478.612 96.41 479.072 98.32 479.072 100.5C479.072 102.68 478.612 104.59 477.692 106.23C476.792 107.87 475.532 109.15 473.912 110.07C472.292 110.97 470.412 111.42 468.272 111.42C466.152 111.42 464.282 110.97 462.662 110.07C461.042 109.15 459.772 107.87 458.852 106.23C457.952 104.59 457.502 102.68 457.502 100.5C457.502 98.32 457.952 96.41 458.852 94.77C459.772 93.13 461.042 91.86 462.662 90.96C464.282 90.04 466.152 89.58 468.272 89.58ZM468.272 110.52C469.972 110.52 471.452 110.1 472.712 109.26C473.992 108.42 474.982 107.25 475.682 105.75C476.402 104.25 476.762 102.5 476.762 100.5C476.762 98.5 476.402 96.75 475.682 95.25C474.982 93.75 473.992 92.58 472.712 91.74C471.452 90.9 469.972 90.48 468.272 90.48C466.592 90.48 465.112 90.9 463.832 91.74C462.572 92.58 461.582 93.75 460.862 95.25C460.162 96.75 459.812 98.5 459.812 100.5C459.812 102.5 460.162 104.25 460.862 105.75C461.582 107.25 462.572 108.42 463.832 109.26C465.112 110.1 466.592 110.52 468.272 110.52ZM500.623 90H504.853C505.753 90 506.563 90.13 507.283 90.39C508.023 90.65 508.643 91.03 509.143 91.53C509.643 92.01 510.023 92.6 510.283 93.3C510.563 93.98 510.703 94.76 510.703 95.64C510.703 96.6 510.473 97.52 510.013 98.4C509.573 99.28 508.963 100 508.183 100.56C507.423 101.1 506.563 101.37 505.603 101.37C505.943 101.51 506.313 101.8 506.713 102.24C507.113 102.66 507.463 103.07 507.763 103.47C507.763 103.47 507.893 103.67 508.153 104.07C508.433 104.45 508.773 104.92 509.173 105.48C509.593 106.04 510.013 106.59 510.433 107.13C510.853 107.67 511.213 108.1 511.513 108.42C511.913 108.86 512.313 109.25 512.713 109.59C513.113 109.93 513.543 110.2 514.003 110.4C514.483 110.6 515.013 110.7 515.593 110.7V111H513.943C513.023 111 512.223 110.86 511.543 110.58C510.883 110.3 510.323 109.96 509.863 109.56C509.403 109.14 509.013 108.74 508.693 108.36C508.633 108.28 508.463 108.05 508.183 107.67C507.923 107.29 507.603 106.84 507.223 106.32C506.863 105.78 506.503 105.25 506.143 104.73C505.783 104.21 505.473 103.77 505.213 103.41C504.953 103.03 504.803 102.81 504.763 102.75C504.383 102.25 503.963 101.79 503.503 101.37C503.043 100.95 502.543 100.74 502.003 100.74V100.44C502.003 100.44 502.153 100.45 502.453 100.47C502.773 100.47 503.153 100.46 503.593 100.44C504.113 100.42 504.683 100.34 505.303 100.2C505.923 100.06 506.503 99.77 507.043 99.33C507.583 98.89 507.993 98.22 508.273 97.32C508.333 97.1 508.383 96.83 508.423 96.51C508.463 96.17 508.473 95.84 508.453 95.52C508.433 94.16 508.083 93.08 507.403 92.28C506.743 91.46 505.853 91.02 504.733 90.96C504.173 90.92 503.593 90.91 502.993 90.93C502.413 90.93 501.923 90.93 501.523 90.93C501.123 90.93 500.923 90.93 500.923 90.93C500.923 90.91 500.893 90.83 500.833 90.69C500.793 90.53 500.743 90.38 500.683 90.24C500.643 90.08 500.623 90 500.623 90ZM501.013 90V111H499.063V90H501.013ZM499.153 108.81V111H496.753V110.7C496.753 110.7 496.813 110.7 496.933 110.7C497.073 110.7 497.143 110.7 497.143 110.7C497.663 110.7 498.103 110.52 498.463 110.16C498.843 109.78 499.043 109.33 499.063 108.81H499.153ZM499.153 92.19H499.063C499.043 91.67 498.843 91.23 498.463 90.87C498.103 90.49 497.663 90.3 497.143 90.3C497.143 90.3 497.073 90.3 496.933 90.3C496.813 90.3 496.753 90.3 496.753 90.3V90H499.153V92.19ZM500.923 108.81H501.013C501.013 109.33 501.203 109.78 501.583 110.16C501.963 110.52 502.413 110.7 502.933 110.7C502.933 110.7 502.993 110.7 503.113 110.7C503.233 110.7 503.293 110.7 503.293 110.7V111H500.923V108.81ZM573.036 90V111H571.086V90H573.036ZM558.816 90V111H556.866V90H558.816ZM571.356 100.17V101.07H558.516V100.17H571.356ZM556.956 108.81V111H554.556V110.7C554.556 110.7 554.616 110.7 554.736 110.7C554.876 110.7 554.946 110.7 554.946 110.7C555.466 110.7 555.906 110.52 556.266 110.16C556.646 109.78 556.846 109.33 556.866 108.81H556.956ZM556.956 92.19H556.866C556.846 91.67 556.646 91.23 556.266 90.87C555.906 90.49 555.466 90.3 554.946 90.3C554.946 90.3 554.876 90.3 554.736 90.3C554.616 90.3 554.556 90.3 554.556 90.3V90H556.956V92.19ZM558.726 108.81H558.816C558.836 109.33 559.026 109.78 559.386 110.16C559.766 110.52 560.216 110.7 560.736 110.7C560.736 110.7 560.796 110.7 560.916 110.7C561.036 110.7 561.106 110.7 561.126 110.7V111H558.726V108.81ZM558.726 92.19V90H561.126V90.3C561.106 90.3 561.036 90.3 560.916 90.3C560.796 90.3 560.736 90.3 560.736 90.3C560.216 90.3 559.766 90.49 559.386 90.87C559.026 91.23 558.836 91.67 558.816 92.19H558.726ZM571.176 108.81V111H568.776V110.7C568.796 110.7 568.866 110.7 568.986 110.7C569.106 110.7 569.166 110.7 569.166 110.7C569.686 110.7 570.136 110.52 570.516 110.16C570.896 109.78 571.086 109.33 571.086 108.81H571.176ZM571.176 92.19H571.086C571.086 91.67 570.896 91.23 570.516 90.87C570.136 90.49 569.686 90.3 569.166 90.3C569.166 90.3 569.106 90.3 568.986 90.3C568.866 90.3 568.796 90.3 568.776 90.3V90H571.176V92.19ZM572.946 108.81H573.036C573.056 109.33 573.246 109.78 573.606 110.16C573.986 110.52 574.436 110.7 574.956 110.7C574.956 110.7 575.016 110.7 575.136 110.7C575.276 110.7 575.346 110.7 575.346 110.7V111H572.946V108.81ZM572.946 92.19V90H575.346V90.3C575.346 90.3 575.276 90.3 575.136 90.3C575.016 90.3 574.956 90.3 574.956 90.3C574.436 90.3 573.986 90.49 573.606 90.87C573.246 91.23 573.056 91.67 573.036 92.19H572.946ZM598.22 90V111H596.27V90H598.22ZM596.36 108.81V111H593.96V110.7C593.96 110.7 594.02 110.7 594.14 110.7C594.28 110.7 594.35 110.7 594.35 110.7C594.87 110.7 595.31 110.52 595.67 110.16C596.05 109.78 596.25 109.33 596.27 108.81H596.36ZM596.36 92.19H596.27C596.25 91.67 596.05 91.23 595.67 90.87C595.31 90.49 594.87 90.3 594.35 90.3C594.35 90.3 594.28 90.3 594.14 90.3C594.02 90.3 593.96 90.3 593.96 90.3V90H596.36V92.19ZM598.13 108.81H598.22C598.24 109.33 598.43 109.78 598.79 110.16C599.17 110.52 599.62 110.7 600.14 110.7C600.14 110.7 600.2 110.7 600.32 110.7C600.44 110.7 600.51 110.7 600.53 110.7V111H598.13V108.81ZM598.13 92.19V90H600.53V90.3C600.51 90.3 600.44 90.3 600.32 90.3C600.2 90.3 600.14 90.3 600.14 90.3C599.62 90.3 599.17 90.49 598.79 90.87C598.43 91.23 598.24 91.67 598.22 92.19H598.13ZM624.827 89.58C625.147 89.58 625.487 89.6 625.847 89.64C626.227 89.68 626.587 89.74 626.927 89.82C627.287 89.88 627.607 89.95 627.887 90.03C628.187 90.09 628.417 90.16 628.577 90.24V93.57H628.307C628.307 92.61 627.977 91.86 627.317 91.32C626.657 90.76 625.857 90.48 624.917 90.48C623.817 90.48 622.927 90.83 622.247 91.53C621.567 92.21 621.227 93.01 621.227 93.93C621.227 94.31 621.307 94.76 621.467 95.28C621.647 95.78 621.967 96.25 622.427 96.69L628.337 102.15C628.937 102.71 629.337 103.31 629.537 103.95C629.737 104.59 629.837 105.21 629.837 105.81C629.837 107.47 629.327 108.82 628.307 109.86C627.307 110.9 625.947 111.42 624.227 111.42C623.747 111.42 623.177 111.37 622.517 111.27C621.877 111.17 621.247 111 620.627 110.76C620.027 110.5 619.527 110.17 619.127 109.77C619.067 109.45 619.037 109.05 619.037 108.57C619.037 108.09 619.077 107.59 619.157 107.07C619.237 106.53 619.347 106.04 619.487 105.6H619.757C619.657 106.62 619.787 107.51 620.147 108.27C620.507 109.03 621.027 109.61 621.707 110.01C622.407 110.39 623.197 110.56 624.077 110.52C625.177 110.46 626.117 110.08 626.897 109.38C627.697 108.66 628.097 107.7 628.097 106.5C628.097 105.92 627.997 105.4 627.797 104.94C627.597 104.46 627.307 104.05 626.927 103.71L621.167 98.37C620.567 97.81 620.147 97.2 619.907 96.54C619.667 95.86 619.547 95.23 619.547 94.65C619.547 93.81 619.747 93 620.147 92.22C620.547 91.44 621.137 90.81 621.917 90.33C622.717 89.83 623.687 89.58 624.827 89.58ZM628.577 89.88V90.51H626.297V89.88H628.577ZM690.305 102.6V107.55C689.845 108.15 689.225 108.75 688.445 109.35C687.665 109.95 686.705 110.45 685.565 110.85C684.445 111.23 683.125 111.42 681.605 111.42C679.485 111.4 677.615 110.94 675.995 110.04C674.375 109.12 673.105 107.85 672.185 106.23C671.285 104.59 670.835 102.68 670.835 100.5C670.835 98.32 671.285 96.41 672.185 94.77C673.105 93.13 674.375 91.86 675.995 90.96C677.615 90.04 679.485 89.58 681.605 89.58C682.705 89.58 683.695 89.67 684.575 89.85C685.455 90.03 686.245 90.28 686.945 90.6C687.665 90.9 688.315 91.24 688.895 91.62L689.495 95.85H689.225C688.925 94.69 688.425 93.72 687.725 92.94C687.045 92.14 686.185 91.53 685.145 91.11C684.105 90.69 682.925 90.48 681.605 90.48C679.925 90.48 678.445 90.9 677.165 91.74C675.885 92.58 674.885 93.75 674.165 95.25C673.445 96.75 673.085 98.5 673.085 100.5C673.085 102.5 673.445 104.25 674.165 105.75C674.885 107.25 675.885 108.42 677.165 109.26C678.445 110.08 679.925 110.5 681.605 110.52C682.485 110.52 683.325 110.42 684.125 110.22C684.945 110 685.715 109.7 686.435 109.32C687.155 108.92 687.795 108.45 688.355 107.91L688.385 102.6C688.385 101.7 687.875 101.25 686.855 101.25H686.375V100.95H692.255V101.25H691.805C690.765 101.25 690.265 101.7 690.305 102.6ZM713.269 90V111H711.319V90H713.269ZM721.369 110.07V111H713.179V110.07H721.369ZM723.199 106.14L721.459 111H716.479L717.559 110.07C718.619 110.07 719.479 109.91 720.139 109.59C720.819 109.25 721.369 108.78 721.789 108.18C722.209 107.58 722.579 106.9 722.899 106.14H723.199ZM711.409 108.81V111H709.009V110.7C709.009 110.7 709.069 110.7 709.189 110.7C709.329 110.7 709.399 110.7 709.399 110.7C709.919 110.7 710.359 110.52 710.719 110.16C711.099 109.78 711.299 109.33 711.319 108.81H711.409ZM711.409 92.19H711.319C711.299 91.67 711.099 91.23 710.719 90.87C710.359 90.49 709.919 90.3 709.399 90.3C709.399 90.3 709.329 90.3 709.189 90.3C709.069 90.3 709.009 90.3 709.009 90.3V90H711.409V92.19ZM713.179 92.19V90H715.579V90.3C715.559 90.3 715.489 90.3 715.369 90.3C715.249 90.3 715.189 90.3 715.189 90.3C714.669 90.3 714.219 90.49 713.839 90.87C713.479 91.23 713.289 91.67 713.269 92.19H713.179ZM751.339 89.58C753.479 89.58 755.359 90.04 756.979 90.96C758.599 91.86 759.859 93.13 760.759 94.77C761.679 96.41 762.139 98.32 762.139 100.5C762.139 102.68 761.679 104.59 760.759 106.23C759.859 107.87 758.599 109.15 756.979 110.07C755.359 110.97 753.479 111.42 751.339 111.42C749.219 111.42 747.349 110.97 745.729 110.07C744.109 109.15 742.839 107.87 741.919 106.23C741.019 104.59 740.569 102.68 740.569 100.5C740.569 98.32 741.019 96.41 741.919 94.77C742.839 93.13 744.109 91.86 745.729 90.96C747.349 90.04 749.219 89.58 751.339 89.58ZM751.339 110.52C753.039 110.52 754.519 110.1 755.779 109.26C757.059 108.42 758.049 107.25 758.749 105.75C759.469 104.25 759.829 102.5 759.829 100.5C759.829 98.5 759.469 96.75 758.749 95.25C758.049 93.75 757.059 92.58 755.779 91.74C754.519 90.9 753.039 90.48 751.339 90.48C749.659 90.48 748.179 90.9 746.899 91.74C745.639 92.58 744.649 93.75 743.929 95.25C743.229 96.75 742.879 98.5 742.879 100.5C742.879 102.5 743.229 104.25 743.929 105.75C744.649 107.25 745.639 108.42 746.899 109.26C748.179 110.1 749.659 110.52 751.339 110.52ZM783.69 90H787.92C788.82 90 789.63 90.13 790.35 90.39C791.09 90.65 791.71 91.03 792.21 91.53C792.71 92.01 793.09 92.6 793.35 93.3C793.63 93.98 793.77 94.76 793.77 95.64C793.77 96.6 793.54 97.52 793.08 98.4C792.64 99.28 792.03 100 791.25 100.56C790.49 101.1 789.63 101.37 788.67 101.37C789.01 101.51 789.38 101.8 789.78 102.24C790.18 102.66 790.53 103.07 790.83 103.47C790.83 103.47 790.96 103.67 791.22 104.07C791.5 104.45 791.84 104.92 792.24 105.48C792.66 106.04 793.08 106.59 793.5 107.13C793.92 107.67 794.28 108.1 794.58 108.42C794.98 108.86 795.38 109.25 795.78 109.59C796.18 109.93 796.61 110.2 797.07 110.4C797.55 110.6 798.08 110.7 798.66 110.7V111H797.01C796.09 111 795.29 110.86 794.61 110.58C793.95 110.3 793.39 109.96 792.93 109.56C792.47 109.14 792.08 108.74 791.76 108.36C791.7 108.28 791.53 108.05 791.25 107.67C790.99 107.29 790.67 106.84 790.29 106.32C789.93 105.78 789.57 105.25 789.21 104.73C788.85 104.21 788.54 103.77 788.28 103.41C788.02 103.03 787.87 102.81 787.83 102.75C787.45 102.25 787.03 101.79 786.57 101.37C786.11 100.95 785.61 100.74 785.07 100.74V100.44C785.07 100.44 785.22 100.45 785.52 100.47C785.84 100.47 786.22 100.46 786.66 100.44C787.18 100.42 787.75 100.34 788.37 100.2C788.99 100.06 789.57 99.77 790.11 99.33C790.65 98.89 791.06 98.22 791.34 97.32C791.4 97.1 791.45 96.83 791.49 96.51C791.53 96.17 791.54 95.84 791.52 95.52C791.5 94.16 791.15 93.08 790.47 92.28C789.81 91.46 788.92 91.02 787.8 90.96C787.24 90.92 786.66 90.91 786.06 90.93C785.48 90.93 784.99 90.93 784.59 90.93C784.19 90.93 783.99 90.93 783.99 90.93C783.99 90.91 783.96 90.83 783.9 90.69C783.86 90.53 783.81 90.38 783.75 90.24C783.71 90.08 783.69 90 783.69 90ZM784.08 90V111H782.13V90H784.08ZM782.22 108.81V111H779.82V110.7C779.82 110.7 779.88 110.7 780 110.7C780.14 110.7 780.21 110.7 780.21 110.7C780.73 110.7 781.17 110.52 781.53 110.16C781.91 109.78 782.11 109.33 782.13 108.81H782.22ZM782.22 92.19H782.13C782.11 91.67 781.91 91.23 781.53 90.87C781.17 90.49 780.73 90.3 780.21 90.3C780.21 90.3 780.14 90.3 780 90.3C779.88 90.3 779.82 90.3 779.82 90.3V90H782.22V92.19ZM783.99 108.81H784.08C784.08 109.33 784.27 109.78 784.65 110.16C785.03 110.52 785.48 110.7 786 110.7C786 110.7 786.06 110.7 786.18 110.7C786.3 110.7 786.36 110.7 786.36 110.7V111H783.99V108.81ZM815.713 90.03L821.593 100.98L820.303 102.03L813.133 90.03H815.713ZM822.013 101.34V111H820.063V101.34H822.013ZM827.353 90.03H829.183L821.803 101.97L820.723 101.64L827.353 90.03ZM826.123 92.16C826.303 91.88 826.353 91.6 826.273 91.32C826.193 91.02 826.043 90.78 825.823 90.6C825.603 90.4 825.353 90.3 825.073 90.3C825.073 90.3 825.013 90.3 824.893 90.3C824.773 90.3 824.713 90.3 824.713 90.3V90H831.373V90.3H830.953C830.333 90.3 829.753 90.48 829.213 90.84C828.673 91.2 828.243 91.61 827.923 92.07L826.123 92.16ZM816.853 92.16L814.333 92.07C814.053 91.61 813.643 91.2 813.103 90.84C812.563 90.48 811.973 90.3 811.333 90.3H810.913V90H818.293V90.3C818.293 90.3 818.223 90.3 818.083 90.3C817.963 90.3 817.903 90.3 817.903 90.3C817.463 90.3 817.123 90.51 816.883 90.93C816.663 91.33 816.653 91.74 816.853 92.16ZM820.123 108.81V111H817.753V110.7C817.753 110.7 817.813 110.7 817.933 110.7C818.053 110.7 818.123 110.7 818.143 110.7C818.663 110.7 819.103 110.52 819.463 110.16C819.843 109.78 820.043 109.33 820.063 108.81H820.123ZM821.923 108.81H822.013C822.013 109.33 822.203 109.78 822.583 110.16C822.963 110.52 823.413 110.7 823.933 110.7C823.933 110.7 823.993 110.7 824.113 110.7C824.233 110.7 824.293 110.7 824.293 110.7V111H821.923V108.81Z" fill="#2F210F"/>
</svg>
