<svg width="100" height="100" viewBox="0 0 100 100" fill="none" xmlns="http://www.w3.org/2000/svg">
<rect x="0.5" y="0.5" width="99" height="99" rx="49.5" stroke="#7A5629"/>
<rect x="6.38232" y="6.38232" width="87.2353" height="87.2353" rx="43.6176" stroke="#7A5629"/>
<g clip-path="url(#clip0_170_98)">
<path d="M66.0724 35.8396H33.6929V37.9838H66.0724V35.8396Z" fill="#5C3F1A"/>
<path d="M50.5967 30.7622H49.1682V35.1634H50.5967V30.7622Z" fill="#5C3F1A"/>
<path d="M49.8818 63.7072C50.1232 63.7072 50.3625 63.7022 50.5967 63.695V38.6606H49.1682V63.695C49.4039 63.7022 49.6403 63.7072 49.8818 63.7072Z" fill="#5C3F1A"/>
<path d="M41.3836 32.5681H39.9536V35.1636H41.3836V32.5681Z" fill="#5C3F1A"/>
<path d="M41.3836 61.4015V38.6606H39.9536V60.1224C40.3848 60.5958 40.8604 61.0219 41.3836 61.4015Z" fill="#5C3F1A"/>
<path d="M45.9895 31.6663H44.561V35.1635H45.9895V31.6663Z" fill="#5C3F1A"/>
<path d="M45.9895 63.3408V38.6606H44.561V62.975C45.0173 63.1187 45.493 63.2394 45.9895 63.3408Z" fill="#5C3F1A"/>
<path d="M55.2042 31.6663H53.7756V35.1635H55.2042V31.6663Z" fill="#5C3F1A"/>
<path d="M55.2042 62.975V38.6606H53.7756V63.3408C54.2729 63.2394 54.7486 63.1187 55.2042 62.975Z" fill="#5C3F1A"/>
<path d="M59.8101 32.5681H58.3816V35.1636H59.8101V32.5681Z" fill="#5C3F1A"/>
<path d="M59.8101 60.1253V38.6606H58.3816V61.4015C58.9025 61.0219 59.3797 60.5981 59.8101 60.1253Z" fill="#5C3F1A"/>
<path d="M30.8165 37.7567C30.8064 37.6331 30.792 37.5109 30.7805 37.3901C30.7446 37.0352 30.7086 36.6832 30.6727 36.3296C30.6548 36.1629 30.6382 35.9962 30.6202 35.8288C30.0317 35.846 29.4512 35.5579 29.1134 35.0729C28.757 34.5605 28.7613 33.9067 28.8763 33.3146C29.1171 32.0779 30.049 31.1475 31.295 30.934C32.5539 30.7149 33.8653 31.174 34.6894 32.154C35.4115 33.0156 35.5661 34.0826 35.5172 35.1634H38.8527V35.1138C38.8355 33.9446 38.6615 32.7798 38.1507 31.7179C37.6045 30.5768 36.7272 29.6054 35.6508 28.9443C33.4823 27.615 30.5168 27.6221 28.4797 29.2138C26.4908 30.7695 25.5926 34.0382 27.1296 36.2053C27.8791 37.2616 29.1365 37.8946 30.4314 37.8508C30.5377 37.8458 30.8294 37.8946 30.8165 37.7567Z" fill="#5C3F1A"/>
<path d="M66.8878 41.9818C66.4602 41.187 66.0104 40.4139 65.6181 39.6019C65.4693 39.2907 65.3207 38.9797 65.1804 38.6606H61.4598C61.6898 39.4274 61.9858 40.1767 62.3128 40.9133C64.219 48.5019 66.2727 64.3848 49.8818 64.3848C33.493 64.3848 35.5459 48.5041 37.4529 40.9133C37.7712 40.1739 38.0651 39.4253 38.2965 38.6606H34.6219C34.1612 39.7069 33.5828 40.7128 33.0453 41.6958C31.7174 44.1151 30.6151 46.6746 30.0561 49.3886C28.928 54.8754 30.1733 60.7431 33.8156 65.0538C37.2762 69.1524 42.4354 71.4511 47.7197 71.9238C53.014 72.3966 58.5446 71.1448 62.8509 67.9603C64.9836 66.386 66.7692 64.3568 68.0217 62.0193C69.3374 59.5618 70.0272 56.8055 70.1176 54.0254C70.2104 51.1922 69.657 48.397 68.6439 45.7584C68.1452 44.4622 67.5473 43.2048 66.8878 41.9818Z" fill="#5C3F1A"/>
<path d="M69.9892 28.4528C67.6021 27.4627 64.7768 28.0663 62.9466 29.872C61.5117 31.286 60.9318 33.2104 60.9182 35.1634H64.2552C64.2099 34.2832 64.3055 33.3785 64.761 32.6162C65.397 31.5476 66.579 30.8844 67.8206 30.8773C69.109 30.8716 70.2759 31.5426 70.7445 32.7699C70.9507 33.3061 71.0542 33.9671 70.9119 34.5304C70.7638 35.1233 70.2852 35.5896 69.7004 35.7577C69.6328 35.7792 69.1572 35.8302 69.1542 35.8482C69.1435 35.9488 69.1342 36.048 69.1227 36.1472C69.0889 36.4963 69.0537 36.8442 69.0163 37.1912C69.0034 37.3327 68.9876 37.4779 68.9732 37.6209C68.9703 37.6517 68.9359 37.7854 68.953 37.8134C69.6141 37.909 70.2982 37.8228 70.9168 37.5756C72.0745 37.1057 72.9626 36.0817 73.2615 34.8681C73.8996 32.2641 72.4508 29.4688 69.9892 28.4528Z" fill="#5C3F1A"/>
</g>
<defs>
<clipPath id="clip0_170_98">
<rect width="47.0588" height="47.0588" fill="white" transform="translate(26.353 26.4705)"/>
</clipPath>
</defs>
</svg>
