<svg width="100" height="100" viewBox="0 0 100 100" fill="none" xmlns="http://www.w3.org/2000/svg">
<rect x="0.5" y="0.5" width="99" height="99" rx="49.5" stroke="#7A5629"/>
<rect x="6.38232" y="6.38232" width="87.2353" height="87.2353" rx="43.6176" stroke="#7A5629"/>
<path d="M68.0784 43.2475C68.0784 43.2475 66.7224 42.0953 64.7608 41.4545C64.2173 39.6239 62.8659 38.3282 61.2847 38.3282C60.6063 38.3282 59.9702 38.5675 59.4204 38.9863C60.0502 39.4655 60.5608 40.1792 60.8894 41.0365H52.4212V33.1745C53.3451 33.4796 54.1145 33.9541 54.6298 34.5376C55.0816 34.0286 55.3388 33.4373 55.3388 32.8059C55.3388 31.3392 53.942 30.0851 51.9702 29.5808C51.28 27.7588 50.0384 26.5 50.0384 26.5C50.0384 26.5 48.7976 27.7588 48.1067 29.5808C46.1349 30.0859 44.7388 31.3392 44.7388 32.8059C44.7388 33.4373 44.9961 34.0286 45.4478 34.5376C45.9631 33.9541 46.7333 33.4788 47.6565 33.1745V41.0357H39.189C39.5169 40.1776 40.029 39.4647 40.6565 38.9855C40.109 38.5667 39.4722 38.3275 38.7922 38.3275C37.211 38.3275 35.862 39.6231 35.3169 41.4537C33.3561 42.0953 32 43.2475 32 43.2475C32 43.2475 33.3561 44.4004 35.3169 45.0412C35.8612 46.8718 37.211 48.1682 38.7922 48.1682C39.4722 48.1682 40.109 47.9282 40.6565 47.5094C40.029 47.0302 39.5169 46.3165 39.189 45.4584H47.6573V66.8843C46.7333 66.58 45.9639 66.1047 45.4486 65.5227C44.9969 66.031 44.7396 66.6224 44.7396 67.2529C44.7396 68.7196 46.1357 69.9745 48.1075 70.478C48.7976 72.3008 50.0384 73.5588 50.0384 73.5588C50.0384 73.5588 51.28 72.3008 51.971 70.478C53.9427 69.9737 55.3396 68.7196 55.3396 67.2529C55.3396 66.6224 55.0824 66.031 54.6306 65.5227C54.1153 66.1047 53.3451 66.5808 52.422 66.8843V45.4584H60.8902C60.5616 46.3165 60.051 47.0302 59.4212 47.5094C59.971 47.9282 60.6071 48.1682 61.2855 48.1682C62.8667 48.1682 64.2173 46.8718 64.7616 45.0412C66.7224 44.3996 68.0784 43.2475 68.0784 43.2475Z" fill="#5C3F1A"/>
</svg>
