<svg width="100" height="100" viewBox="0 0 100 100" fill="none" xmlns="http://www.w3.org/2000/svg">
<rect x="0.5" y="0.5" width="99" height="99" rx="49.5" stroke="#7A5629"/>
<rect x="6.38232" y="6.38232" width="87.2353" height="87.2353" rx="43.6176" stroke="#7A5629"/>
<path d="M70.4707 38.8735V36.8147C67.0619 33.3941 62.4295 31.197 57.2824 30.9353C56.953 30.9 56.6295 30.8823 56.3001 30.8823C53.7295 30.8823 51.4266 32.0411 49.8913 33.8617C48.256 32.047 45.9001 30.9 43.2766 30.9C43.0119 30.9 42.753 30.9117 42.4942 30.9353C37.3354 31.197 32.7001 33.3941 29.2942 36.8147V38.8735L26.353 39.7559V69.1676L46.0589 65.05L46.9413 66.2264H52.8236L53.706 65.05L73.4118 69.1676V39.7559L70.4707 38.8735ZM42.4707 58.3147C38.7207 58.4235 35.2148 59.3676 32.1001 60.9676L32.2354 38.05C34.8383 35.5941 38.3119 34.0353 42.1442 33.8735C44.5148 34.0323 46.656 34.7647 48.4942 35.9353L48.4383 59.0794C46.806 58.5911 44.9295 58.3088 42.9854 58.3088C42.803 58.3088 42.6207 58.3117 42.4413 58.3176L42.4707 58.3147ZM67.5295 60.9029C64.5501 59.3676 61.0442 58.4235 57.3295 58.3147C57.1648 58.3117 57.0119 58.3088 56.856 58.3088C54.9148 58.3088 53.0413 58.5912 51.2707 59.1147L51.4089 35.8735C53.1766 34.7529 55.2971 34.0294 57.5736 33.8764C61.4677 34.0382 64.9295 35.6 67.5324 38.0588L67.5236 60.9059L67.5295 60.9029Z" fill="#5C3F1A"/>
</svg>
