<svg width="45" height="45" viewBox="0 0 45 45" fill="none" xmlns="http://www.w3.org/2000/svg">
<path d="M3.75 28.125V39.375C3.75 40.4063 4.59375 41.25 5.625 41.25H9.375V24.15L4.78125 26.4375C4.47204 26.5933 4.212 26.8317 4.02998 27.1263C3.84796 27.4208 3.75105 27.76 3.75 28.1063V28.125ZM32.8313 20.8875L24.375 15.8063V11.25H28.125V7.5H24.375V3.75H20.625V7.5H16.875V11.25H20.625V15.8063L12.1687 20.8875C11.6062 21.225 11.25 21.8438 11.25 22.5V41.25H18.75V33.75C18.75 31.6875 20.4375 30 22.5 30C24.5625 30 26.25 31.6875 26.25 33.75V41.25H33.75V22.5C33.7518 22.1742 33.6679 21.8537 33.5066 21.5707C33.3453 21.2876 33.1124 21.052 32.8313 20.8875ZM22.5 26.25C20.9438 26.25 19.6875 24.9938 19.6875 23.4375C19.6875 21.8813 20.9438 20.625 22.5 20.625C24.0562 20.625 25.3125 21.8813 25.3125 23.4375C25.3125 24.9938 24.0562 26.25 22.5 26.25ZM40.2188 26.4563L35.625 24.1688V41.2688H39.375C40.4063 41.2688 41.25 40.425 41.25 39.3938V28.1438C41.25 27.4313 40.8563 26.7938 40.2188 26.475V26.4563Z" fill="#FDFBF8"/>
</svg>
